HIERARCHY
ROOT root
{
	OFFSET 0.000000 0.000000 0.000000
	CHANNELS 6 Xposition Yposition Zposition Zrotation Yrotation Xrotation
	JOINT lhip
	{
		OFFSET 0.058581 -0.082280 -0.017664
		CHANNELS 3 Zrotation Yrotation Xrotation
		JOINT lknee
		{
			OFFSET 0.043451 -0.386469 0.008037
			CHANNELS 3 Zrotation Yrotation Xrotation
			JOINT lankle
			{
				OFFSET -0.014790 -0.426874 -0.037428
				CHANNELS 3 Zrotation Yrotation Xrotation
				JOINT ltoe
				{
					OFFSET 0.041054 -0.060286 0.122042
					CHANNELS 3 Zrotation Yrotation Xrotation
					End Site
					{
						OFFSET 0.000000 0.000000 0.000000
					}
				}
			}
		}
	}
	JOINT rhip
	{
		OFFSET -0.060310 -0.090513 -0.013543
		CHANNELS 3 Zrotation Yrotation Xrotation
		JOINT rknee
		{
			OFFSET -0.043257 -0.383688 -0.004843
			CHANNELS 3 Zrotation Yrotation Xrotation
			JOINT rankle
			{
				OFFSET 0.019056 -0.420046 -0.034562
				CHANNELS 3 Zrotation Yrotation Xrotation
				JOINT rtoe
				{
					OFFSET -0.034840 -0.062106 0.130323
					CHANNELS 3 Zrotation Yrotation Xrotation
					End Site
					{
						OFFSET 0.000000 0.000000 0.000000
					}
				}
			}
		}
	}
	JOINT lowerback
	{
		OFFSET 0.004439 0.124404 -0.038385
		CHANNELS 3 Zrotation Yrotation Xrotation
		JOINT upperback
		{
			OFFSET 0.004488 0.137956 0.026820
			CHANNELS 3 Zrotation Yrotation Xrotation
			JOINT chest
			{
				OFFSET -0.002265 0.056032 0.002855
				CHANNELS 3 Zrotation Yrotation Xrotation
				JOINT lowerneck
				{
					OFFSET -0.013390 0.211636 -0.033468
					CHANNELS 3 Zrotation Yrotation Xrotation
					JOINT upperneck
					{
						OFFSET 0.010113 0.088937 0.050410
						CHANNELS 3 Zrotation Yrotation Xrotation
						End Site
						{
							OFFSET 0.000000 0.000000 0.000000
						}
					}
				}
				JOINT lclavicle
				{
					OFFSET 0.071702 0.114000 -0.018898
					CHANNELS 3 Zrotation Yrotation Xrotation
					JOINT lshoulder
					{
						OFFSET 0.122921 0.045205 -0.019046
						CHANNELS 3 Zrotation Yrotation Xrotation
						JOINT lelbow
						{
							OFFSET 0.255332 -0.015649 -0.022946
							CHANNELS 3 Zrotation Yrotation Xrotation
							JOINT lwrist
							{
								OFFSET 0.265709 0.012698 -0.007375
								CHANNELS 3 Zrotation Yrotation Xrotation
								End Site
								{
									OFFSET 0.000000 0.000000 0.000000
								}
							}
						}
					}
				}
				JOINT rclavicle
				{
					OFFSET -0.082954 0.112472 -0.023707
					CHANNELS 3 Zrotation Yrotation Xrotation
					JOINT rshoulder
					{
						OFFSET -0.113228 0.046853 -0.008472
						CHANNELS 3 Zrotation Yrotation Xrotation
						JOINT relbow
						{
							OFFSET -0.260127 -0.014369 -0.031269
							CHANNELS 3 Zrotation Yrotation Xrotation
							JOINT rwrist
							{
								OFFSET -0.269108 0.006794 -0.006027
								CHANNELS 3 Zrotation Yrotation Xrotation
								End Site
								{
									OFFSET 0.000000 0.000000 0.000000
								}
							}
						}
					}
				}
			}
		}
	}
}
MOTION
Frames: 10
Frame Time: 0.033333
0.213356 -0.355953 0.888619 -2.437378 0.810602 82.086546 4.880474 -1.978871 -16.897201 -6.025322 4.202234 52.487777 3.339408 14.065030 -34.888912 0.000000 -0.000000 0.000000 -1.390781 2.556935 -18.515541 2.607098 -0.544999 55.746160 1.596628 -11.704245 -30.974957 0.000000 -0.000000 0.000000 -1.763971 2.232392 14.636288 4.040916 -2.938183 5.836505 0.731359 -0.275595 -0.024368 -2.411778 9.993494 -5.596138 -1.576822 0.117035 -3.067497 -20.698795 -17.293147 -2.050280 -25.148824 -11.376559 2.707743 32.594873 -74.214702 -6.662088 -34.177998 -4.136664 10.863989 25.187593 16.103654 3.441386 21.466757 12.309540 2.895292 -62.561982 76.048179 -32.907600 38.699327 -9.668865 8.506926 
0.213327 -0.355686 0.888622 -2.402539 0.825315 82.068932 4.898043 -2.042132 -16.902005 -6.026932 4.206872 52.486127 3.282625 14.043784 -34.892602 0.000000 -0.000000 0.000000 -1.375088 2.505335 -18.486300 2.566959 -0.540348 55.703285 1.559808 -11.647300 -30.993084 0.000000 -0.000000 0.000000 -1.784989 2.261573 14.532227 4.111780 -3.053987 5.983759 0.729643 -0.280016 -0.020519 -2.354828 9.944557 -5.623495 -1.536866 -0.132643 -3.021916 -20.670829 -17.204220 -2.038864 -25.170528 -11.560495 2.676778 32.197513 -74.200126 -6.144056 -34.021371 -4.416036 10.780382 25.200815 16.045439 3.397301 21.520279 12.342333 2.860456 -62.109895 76.130583 -32.110447 38.791794 -9.401381 8.056908 
0.213204 -0.355630 0.889025 -2.456173 0.708166 81.841635 4.739482 -1.930394 -16.579474 -6.006663 4.121436 52.390389 3.249190 14.020927 -34.940574 0.000000 -0.000000 0.000000 -1.447254 2.369785 -18.188819 2.483987 -0.440619 55.603427 1.547625 -11.520349 -31.134728 0.000000 -0.000000 0.000000 -1.915609 2.356428 14.784551 4.071435 -3.100703 5.973920 0.789119 -0.286876 -0.137450 -2.275209 9.841616 -5.415252 -1.474825 -0.201759 -3.031056 -20.746474 -17.236153 -1.957727 -25.104340 -11.488674 2.694395 32.452574 -74.177747 -6.508252 -33.744824 -4.613163 10.960312 25.241720 16.126804 3.312510 21.598250 12.172789 2.924420 -61.923796 76.146338 -31.951756 38.888023 -9.340778 8.023525 
0.213274 -0.354314 0.888402 -2.510794 0.835571 81.981212 4.901613 -2.030660 -16.901951 -5.968881 4.224920 52.533296 3.219666 14.029186 -34.973895 0.000000 -0.000000 0.000000 -1.335205 2.535502 -18.517794 2.519611 -0.546446 55.728866 1.444522 -11.584236 -31.108540 0.000000 -0.000000 0.000000 -1.755577 2.279722 14.745434 4.114886 -3.069065 5.724186 0.686811 -0.235275 0.071545 -2.180685 9.181850 -5.645299 -1.228281 -1.226641 -2.745323 -20.509143 -17.141691 -2.124028 -25.312878 -11.803469 2.713280 32.484261 -74.152978 -6.095004 -33.977196 -4.593769 10.839818 25.009532 16.034386 3.082864 21.760620 12.278364 2.894907 -61.916727 76.169919 -31.560805 39.082422 -9.250212 7.745675 
0.213351 -0.353925 0.888288 -2.540551 0.826288 81.966102 4.873563 -2.038690 -16.903567 -5.978096 4.197080 52.523262 3.203490 14.054160 -34.975309 0.000000 -0.000000 0.000000 -1.339125 2.567239 -18.542914 2.508626 -0.535072 55.746720 1.402393 -11.568769 -31.095323 0.000000 -0.000000 0.000000 -1.730658 2.261977 14.816090 4.082698 -3.057919 5.676315 0.673142 -0.209526 0.064555 -2.220846 8.862486 -5.670186 -1.049615 -1.587841 -2.720984 -20.457864 -17.179701 -2.099483 -25.361058 -11.828106 2.618364 32.763712 -74.164443 -6.218452 -34.118393 -4.580537 10.765186 24.904325 16.090646 3.040791 21.855477 12.251111 2.790134 -61.961175 76.158030 -31.431852 39.233784 -9.242611 7.785762 
0.213546 -0.353218 0.888031 -2.592075 0.793494 81.881676 4.790524 -2.003530 -16.872583 -5.954501 4.139150 52.564126 3.212483 14.072423 -34.950272 0.000000 -0.000000 0.000000 -1.357083 2.569451 -18.533708 2.476625 -0.493982 55.787645 1.389415 -11.497260 -31.109375 0.000000 -0.000000 0.000000 -1.715714 2.238808 15.040282 4.013723 -3.018026 5.498790 0.705189 -0.175348 0.052915 -2.253866 8.600321 -5.689765 -0.851952 -1.714067 -2.651741 -20.450860 -17.261493 -2.014123 -25.462705 -11.829470 2.427554 33.409850 -74.240436 -6.646959 -34.061771 -4.546501 10.761409 24.747240 16.216808 3.104398 21.945797 12.153032 2.570519 -62.234439 76.106954 -31.576521 39.138638 -9.229163 7.824447 
0.213627 -0.352694 0.887801 -2.624336 0.824719 81.891235 4.848050 -2.027919 -16.955637 -5.849601 4.234190 52.617261 3.165205 13.989504 -35.034153 0.000000 -0.000000 0.000000 -1.316792 2.526450 -18.625892 2.445561 -0.460100 55.838005 1.390739 -11.411189 -31.113233 0.000000 -0.000000 0.000000 -1.678360 2.233786 15.064710 4.001164 -3.020148 5.464060 0.693372 -0.160975 0.036232 -2.196065 8.417757 -5.713133 -0.773889 -1.823431 -2.606786 -20.452879 -17.213747 -2.050756 -25.553364 -11.870028 2.394783 34.364023 -74.460587 -7.534811 -34.356538 -4.438063 10.748542 24.706915 16.193664 3.131563 21.902882 12.191795 2.432747 -62.483751 76.091558 -31.864350 39.251890 -9.298171 7.833340 
0.213714 -0.352098 0.887519 -2.679357 0.833176 81.902562 4.925162 -2.034164 -17.042329 -5.869907 4.339256 52.694254 3.140502 13.901543 -35.150331 0.000000 -0.000000 0.000000 -1.311707 2.542422 -18.739661 2.431288 -0.455909 55.927935 1.365041 -11.350789 -31.105810 0.000000 -0.000000 0.000000 -1.663915 2.219801 15.112953 3.970150 -3.012885 5.409393 0.645710 -0.138482 0.078415 -2.160972 8.368465 -5.796878 -0.645518 -2.077684 -2.731842 -20.388459 -17.076777 -2.257119 -25.652214 -11.873013 2.538961 35.394528 -74.856803 -8.463612 -34.438318 -4.430227 10.694374 24.701444 16.131188 2.989423 21.902470 12.241281 2.444216 -62.450983 76.108319 -31.875604 38.988195 -9.255741 8.026348 
0.213752 -0.351491 0.887063 -2.755578 0.832748 81.868485 5.007323 -1.962469 -17.092959 -5.911646 4.436863 52.810028 3.182231 13.817808 -35.198136 0.000000 -0.000000 0.000000 -1.291718 2.554160 -18.789488 2.415523 -0.446644 55.997594 1.321574 -11.401684 -31.147298 0.000000 -0.000000 0.000000 -1.680071 2.193974 15.162574 3.946566 -2.967550 5.421605 0.629503 -0.119331 0.085012 -2.074236 8.191837 -5.864334 -0.558169 -2.101682 -2.757465 -20.466474 -17.050102 -2.189678 -25.629470 -11.839392 2.578364 36.674920 -75.208070 -9.727694 -34.132161 -4.666336 10.572605 24.724971 16.239828 3.054262 21.827823 12.174190 2.420562 -62.823669 75.984673 -32.260980 38.897986 -9.155257 8.126387 
0.213791 -0.350785 0.886420 -2.850852 0.769167 81.798400 5.039377 -1.916625 -17.076939 -6.047907 4.544823 52.876138 3.186096 13.795187 -35.299350 0.000000 -0.000000 0.000000 -1.338296 2.555600 -18.877919 2.418389 -0.403290 56.193455 1.355351 -11.341562 -31.184885 0.000000 -0.000000 0.000000 -1.746878 2.202470 15.356304 3.898860 -2.884020 5.214466 0.627122 -0.127901 0.226391 -1.989862 8.113129 -6.002546 -0.520537 -2.263014 -2.724500 -20.563966 -16.912384 -2.272857 -25.585184 -11.956063 2.652595 37.085232 -75.575312 -10.229589 -34.013397 -4.974460 10.230633 24.773535 16.185946 2.893529 21.755108 12.238526 2.532733 -62.501492 76.032785 -31.956827 38.827429 -9.143956 8.027197 
